# xmcd
#
# Track frame offsets: 
#        150
#        16907
#        36042
#        56759
#        64944
#        80816
#        96508
#        113993
#        126618
#        148250
#        161227
#        175862
#        186882
#        206174
#        220036
#        233876
#        247026
#        270563
#
# Disc length: 3801 seconds
#
# Revision: 0
# Processed by: cddbd v1.5.2PL0 Copyright (c) Steve Scherf et al.
# Submitted via: ExactAudioCopy v1.0b1
#
DISCID=1c0ed712
DTITLE=Barrelhouse Chuck - Salute To Sunnyland Slim
DYEAR=1999
DGENRE=Chicago Blues, Electric Blues
TTITLE0=On The House
TTITLE1=Any Old Lonesome Day
TTITLE2=Hangin' Round The House
TTITLE3=Floral Park Boogie
TTITLE4=Depression Blues
TTITLE5=Salute To Sunnyland Slim
TTITLE6=Cool Disposiotion
TTITLE7=Jack Knife
TTITLE8=Everybody's Got To Change Sometimes
TTITLE9=Shake Dancer
TTITLE10=Going Back To Memphis
TTITLE11=Lonesome Child
TTITLE12=Pinetops Blues
TTITLE13=You Don't Love Me
TTITLE14=Walkin' On The Ceiling
TTITLE15=Church Street Blues
TTITLE16=Wah-Wah Blues
TTITLE17=Answering Machine
EXTD=
EXTT0=
EXTT1=
EXTT2=
EXTT3=
EXTT4=
EXTT5=
EXTT6=
EXTT7=
EXTT8=
EXTT9=
EXTT10=
EXTT11=
EXTT12=
EXTT13=
EXTT14=
EXTT15=
EXTT16=
EXTT17=
PLAYORDER=
